<?xml version="1.0" encoding="UTF-8"?>
<svg id="Layer_2" data-name="Layer 2" xmlns="http://www.w3.org/2000/svg" viewBox="0 0 1440 1080">
  <defs>
    <style>
      .cls-1 {
        fill: #231f20;
      }
    </style>
  </defs>
  <path class="cls-1" d="M343.43,584.26c29.44-64.82,89.63-120.11,154.34-149,9.04-3.55,24.45-9.95,34.1-6.31,14.12,7.31,5.6,28.91,1.48,39.82-42.52,101.01-235.85,339.67-342.38,364.72-6.93,1.63-14.49,2.31-21.97,1.75-2.91-2.06-5.97-4.35-7.82-7.61-10.02-17.44,9.27-40.4,19.97-53.18,37.36-41.55,82.43-75.13,127.75-107.34,45.72-31.48,92.74-61.33,143.58-84.05,12.94-5.58,26.26-10.8,40.21-13.81,4.87-1.01,10.01-1.8,15.36-1.73,12.45,.96,25.01,2.56,37.28,4.9,12.02,2.34,23.35,4.59,35.5,4.28,5.75,0,11.46-.64,17.09-2.04,17.61-4.28,34.47-11.33,51.38-18.2,10.14-4.17,24.26-10.23,34.53-13.91,3-1.06,6-2.1,9.37-2.91,0,0,9.13-1.91,9.13-1.91,17.93-3.95,35.84-8.44,53.52-13.36,11.06-3.3,22.42-6.07,32.77-11.11,0,0,.65-.4,.65-.4,0,0,1.23-.75,1.23-.75,6.66-.51,13.28-.95,20.27-.39,6.33,.45,12.59,2.63,18.58,3.86,5.71,1.16,11.65,1.65,17.68,1.89,0,0,4.53,.14,4.53,.14,0,0,4.56,.02,4.56,.02h2.28c1.49,0,2.66-.09,4.09-.25,0,0,2.04-.33,2.04-.33,21.51-4.8,43-24.55,59.48-38.97,13.75-12.33,26.98-25.44,41.15-37.42,7.43-6,14.95-12.5,24.45-15.52,12.73-3.3,12.62,5.83,8.78,15.73-5.61,14.61-13.44,28.21-21.01,41.73-49.87,85.28-105.89,166.7-161.76,248.09,0,0-1.4-.96-1.4-.96,27.52-40.94,54.61-82.18,81.25-123.69,32.66-52.01,67.12-103.5,93.75-158.89,1.8-4.11,3.51-8.23,4.63-12.51,.34-1.35,.58-2.73,.57-3.73,0-.46-.16-.8-.04-.54,.13,.17,.3,.33,.49,.42,.14,.03,.12,.08,.2,.07,.07,0-.02,0-.09,0,0,0-.19,0-.19,0-3.93-.07-7.44,1.99-10.97,4.08-4.96,3.1-9.69,6.93-14.3,10.88-23.33,20.3-44.11,43.34-69.08,61.91-12.85,9.28-27.61,18.79-44.27,18.36-9.55,.1-18.98-.12-28.51-1.91-6.09-1.16-11.6-3.13-17.63-3.53-5.69-.4-11.69-.02-17.7,.5,0,0,2.24-.83,2.24-.83-2.89,1.95-6.17,3.26-9.35,4.52-8.79,3.35-17.77,6.07-26.75,8.71-20.76,5.99-41.76,11.48-62.89,16.04-8.5,2.31-16.87,6.09-25.16,9.51-16.69,7.07-34.56,15.01-51.68,21.03-9.01,3.1-18.26,6.07-27.87,7.4-9.62,1.1-19.54,.86-29.15-.37-6.38-.84-12.5-2.06-18.5-3.12-11.31-2.13-25.8-3.74-35.61-4.41-8.27,.13-16.99,2.52-25.04,5.12-25.65,8.66-49.81,21.43-73.48,34.71-63.07,36.38-123.19,78.83-177.73,127.12-16.83,15.49-52.69,48.45-56.31,69.31-.14,2.36,.04,3.03,1.58,4.19,0,0-4.31-1.44-4.31-1.44,82.34,.02,248.04-199.07,296.17-267.46,14.31-19.95,63.44-89.49,58.96-111.25-.2-.39-.23-.43-.48-.6,0,0,.36,.17,.36,.17-.02-.06-.84-.25-1.71-.28-8.16,.05-16.17,3.09-23.92,5.91-28.29,11.14-54.34,27.74-78.18,46.67-31.87,25.57-59.63,56.81-78.57,93.25,0,0-1.53-.74-1.53-.74h0Z"/>
  <path class="cls-1" d="M1047.29,416.24c-10.16,27.08-22.86,52.85-36.25,78.35-13.24,25.47-29.43,49.22-44.36,73.69-29.02,47.61-61.05,99.25-90.92,146.11,0,0-1.47-.85-1.47-.85,32.11-62.77,67.93-127.61,100.65-190.12,13.31-25.45,28.7-49.66,44.97-73.34,8.2-11.82,16.65-23.49,25.91-34.7,0,0,1.47,.85,1.47,.85h0Z"/>
  <path class="cls-1" d="M863.68,610.84c8.52-11.62,19.05-21.39,30.88-29.48,1.94-1.23,5.97-3.85,7.89-4.91,6.37-3.49,13.13-6.33,20.11-8.33,2.03-.52,7.09-1.81,9.06-2.28,4.71-.83,10.48-2.14,15.21-2.71,2.06-.27,7.1-1.1,9.12-1.23,7.04-.67,14.17-1.15,21.26-1.11,5.97-.06,12.14,.3,18.08,.58,16,1.17,31.74,3.64,47.28,6.76,0,0-.21,1.69-.21,1.69l-11.84-.32c-5.27-.25-12.43-.16-17.69-.16-10.22-.03-21.98,.77-32.12,1.66-1.76,.23-6.78,.91-8.62,1.15-5.24,.55-10.43,1.71-15.6,2.61-.85,.21-5.96,1.47-6.94,1.71-9.23,2.28-17.92,5.9-26.46,9.83-12.14,5.31-24.32,10.73-36.3,16.45-7.27,3.29-14.41,6.8-22.07,9.47,0,0-1.03-1.36-1.03-1.36h0Z"/>
</svg>